<mxfile host="app.diagrams.net" agent="Mozilla/5.0 (Windows NT 10.0; Win64; x64) AppleWebKit/537.36 (KHTML, like Gecko) Chrome/134.0.0.0 Safari/537.36" version="26.1.3">
  <diagram name="Page-1" id="8sNN-w12TKgg2w9x6Gwd">
    <mxGraphModel dx="1750" dy="1005" grid="1" gridSize="10" guides="1" tooltips="1" connect="1" arrows="1" fold="1" page="1" pageScale="1" pageWidth="850" pageHeight="1100" math="0" shadow="0">
      <root>
        <mxCell id="0" />
        <mxCell id="1" parent="0" />
        <mxCell id="fyoFIf6zlMeUPn5KMZpg-22" value="" style="group" vertex="1" connectable="0" parent="1">
          <mxGeometry x="480" y="200" width="120" height="280" as="geometry" />
        </mxCell>
        <mxCell id="fyoFIf6zlMeUPn5KMZpg-17" value="Malware" style="shape=ext;double=1;rounded=1;whiteSpace=wrap;html=1;fillColor=#d5e8d4;strokeColor=#82b366;" vertex="1" parent="fyoFIf6zlMeUPn5KMZpg-22">
          <mxGeometry width="120" height="40" as="geometry" />
        </mxCell>
        <mxCell id="fyoFIf6zlMeUPn5KMZpg-18" value="Rootkits" style="shape=ext;double=1;rounded=1;whiteSpace=wrap;html=1;fillColor=#d5e8d4;strokeColor=#82b366;" vertex="1" parent="fyoFIf6zlMeUPn5KMZpg-22">
          <mxGeometry y="80" width="120" height="40" as="geometry" />
        </mxCell>
        <mxCell id="fyoFIf6zlMeUPn5KMZpg-19" value="Reserve Engineering" style="shape=ext;double=1;rounded=1;whiteSpace=wrap;html=1;fillColor=#d5e8d4;strokeColor=#82b366;" vertex="1" parent="fyoFIf6zlMeUPn5KMZpg-22">
          <mxGeometry y="160" width="120" height="40" as="geometry" />
        </mxCell>
        <mxCell id="fyoFIf6zlMeUPn5KMZpg-20" value="Pivoting &amp;amp; Persistence&amp;nbsp;" style="shape=ext;double=1;rounded=1;whiteSpace=wrap;html=1;fillColor=#d5e8d4;strokeColor=#82b366;" vertex="1" parent="fyoFIf6zlMeUPn5KMZpg-22">
          <mxGeometry y="240" width="120" height="40" as="geometry" />
        </mxCell>
        <mxCell id="fyoFIf6zlMeUPn5KMZpg-23" value="" style="group" vertex="1" connectable="0" parent="1">
          <mxGeometry x="280" y="200" width="120" height="200" as="geometry" />
        </mxCell>
        <mxCell id="fyoFIf6zlMeUPn5KMZpg-1" value="&lt;font style=&quot;font-size: 17px;&quot;&gt;CIA Triad&lt;/font&gt;" style="shape=ext;double=1;rounded=1;whiteSpace=wrap;html=1;fillColor=#fff2cc;strokeColor=#d6b656;" vertex="1" parent="fyoFIf6zlMeUPn5KMZpg-23">
          <mxGeometry y="160" width="120" height="40" as="geometry" />
        </mxCell>
        <mxCell id="fyoFIf6zlMeUPn5KMZpg-5" value="Privilege Escalation" style="shape=ext;double=1;rounded=1;whiteSpace=wrap;html=1;fillColor=#fff2cc;strokeColor=#d6b656;" vertex="1" parent="fyoFIf6zlMeUPn5KMZpg-23">
          <mxGeometry width="120" height="40" as="geometry" />
        </mxCell>
        <mxCell id="fyoFIf6zlMeUPn5KMZpg-6" value="Windows Active Directory" style="shape=ext;double=1;rounded=1;whiteSpace=wrap;html=1;fillColor=#fff2cc;strokeColor=#d6b656;" vertex="1" parent="fyoFIf6zlMeUPn5KMZpg-23">
          <mxGeometry y="80" width="120" height="40" as="geometry" />
        </mxCell>
        <mxCell id="fyoFIf6zlMeUPn5KMZpg-24" value="" style="group" vertex="1" connectable="0" parent="1">
          <mxGeometry x="80" y="200" width="120" height="280" as="geometry" />
        </mxCell>
        <mxCell id="fyoFIf6zlMeUPn5KMZpg-2" value="OWASP Framework OSINT" style="shape=ext;double=1;rounded=1;whiteSpace=wrap;html=1;fillColor=#fff2cc;strokeColor=#d6b656;" vertex="1" parent="fyoFIf6zlMeUPn5KMZpg-24">
          <mxGeometry width="120" height="40" as="geometry" />
        </mxCell>
        <mxCell id="fyoFIf6zlMeUPn5KMZpg-3" value="Recon, Scanning and Enumeration" style="shape=ext;double=1;rounded=1;whiteSpace=wrap;html=1;fillColor=#fff2cc;strokeColor=#d6b656;" vertex="1" parent="fyoFIf6zlMeUPn5KMZpg-24">
          <mxGeometry y="160" width="120" height="40" as="geometry" />
        </mxCell>
        <mxCell id="fyoFIf6zlMeUPn5KMZpg-4" value="Exploitation &amp;amp; Attacking Vector" style="shape=ext;double=1;rounded=1;whiteSpace=wrap;html=1;fillColor=#fff2cc;strokeColor=#d6b656;" vertex="1" parent="fyoFIf6zlMeUPn5KMZpg-24">
          <mxGeometry y="240" width="120" height="40" as="geometry" />
        </mxCell>
        <mxCell id="fyoFIf6zlMeUPn5KMZpg-7" value="Exploit Dev &amp;amp; Payloads" style="shape=ext;double=1;rounded=1;whiteSpace=wrap;html=1;fillColor=#fff2cc;strokeColor=#d6b656;" vertex="1" parent="fyoFIf6zlMeUPn5KMZpg-24">
          <mxGeometry y="80" width="120" height="40" as="geometry" />
        </mxCell>
      </root>
    </mxGraphModel>
  </diagram>
</mxfile>
